<svg width="32" height="32" viewBox="0 0 32 32" fill="none" xmlns="http://www.w3.org/2000/svg">
<g clip-path="url(#clip0_12138_439)">
<path fill-rule="evenodd" clip-rule="evenodd" d="M1 12C0.85037 12.0001 0.702657 12.0337 0.567753 12.0984C0.432849 12.1632 0.314192 12.2574 0.22053 12.3741C0.126868 12.4907 0.0605872 12.627 0.0265741 12.7727C-0.00743894 12.9184 -0.00831744 13.0699 0.0240034 13.216L3.328 28.084C3.57463 29.1945 4.19255 30.1877 5.07976 30.8997C5.96698 31.6116 7.07045 31.9998 8.208 32H19.792C20.9296 31.9998 22.033 31.6116 22.9202 30.8997C23.8075 30.1877 24.4254 29.1945 24.672 28.084L24.934 26.904C26.4638 27.1901 28.045 26.8706 29.3437 26.0129C30.6424 25.1552 31.557 23.8264 31.8944 22.307C32.2318 20.7876 31.9656 19.1966 31.1521 17.8698C30.3385 16.543 29.0412 15.5843 27.534 15.196L27.976 13.216C28.0083 13.0699 28.0074 12.9184 27.9734 12.7727C27.9394 12.627 27.8731 12.4907 27.7795 12.3741C27.6858 12.2574 27.5672 12.1632 27.4323 12.0984C27.2973 12.0337 27.1496 12.0001 27 12H1ZM26 25C25.7883 25.0001 25.577 24.9834 25.368 24.95L27.102 17.154C28.027 17.4219 28.8244 18.0144 29.3478 18.8227C29.8713 19.631 30.0857 20.601 29.9518 21.5546C29.8178 22.5083 29.3445 23.3817 28.6186 24.0145C27.8927 24.6474 26.963 24.9973 26 25ZM5.28 27.65L2.246 14H25.754L22.72 27.65C22.5721 28.3164 22.2014 28.9124 21.6691 29.3396C21.1367 29.7669 20.4746 29.9998 19.792 30H8.208C7.52542 29.9998 6.86329 29.7669 6.33095 29.3396C5.79862 28.9124 5.4279 28.3164 5.28 27.65Z" fill="#101828"/>
<path d="M8.8 1.6L8.794 1.608L8.766 1.646C8.62048 1.84624 8.48433 2.05313 8.358 2.266C8.25068 2.43664 8.15641 2.61515 8.076 2.8C8.024 2.92 8.008 2.984 8.002 3.006V3.014C8.02506 3.1908 8.08724 3.36024 8.184 3.51C8.334 3.776 8.54 4.054 8.8 4.4L8.82 4.424C9.056 4.74 9.34 5.118 9.56 5.51C9.784 5.91 10 6.42 10 7C10 7.376 9.87 7.736 9.762 7.988C9.6464 8.25615 9.51137 8.51551 9.358 8.764C9.2011 9.02626 9.03225 9.2812 8.852 9.528L8.816 9.578L8.806 9.594L8.802 9.598C8.64314 9.81044 8.40639 9.95106 8.14384 9.98895C7.88129 10.0268 7.61444 9.95886 7.402 9.8C7.18956 9.64113 7.04893 9.40438 7.01105 9.14183C6.97317 8.87928 7.04114 8.61244 7.2 8.4L7.206 8.392L7.234 8.354C7.37952 8.15375 7.51567 7.94687 7.642 7.734C7.74932 7.56336 7.84359 7.38485 7.924 7.2C7.976 7.08 7.992 7.016 7.998 6.994C7.97671 6.81459 7.91517 6.64231 7.818 6.49C7.63235 6.17971 7.42588 5.88236 7.2 5.6L7.18 5.576C6.90979 5.23062 6.66259 4.86783 6.44 4.49C6.16759 4.03945 6.01604 3.52625 6 3C6 2.624 6.13 2.264 6.238 2.012C6.356 1.736 6.506 1.464 6.642 1.236C6.80088 0.974982 6.96967 0.72013 7.148 0.471998L7.198 0.401998C7.35686 0.18956 7.59361 0.0489314 7.85616 0.0110491C8.11872 -0.0268333 8.38556 0.0411339 8.598 0.199999C8.81044 0.358863 8.95107 0.595612 8.98895 0.858163C9.02683 1.12071 8.95886 1.38756 8.8 1.6ZM14.8 1.6L14.794 1.608L14.766 1.646C14.6205 1.84624 14.4843 2.05313 14.358 2.266C14.2507 2.43664 14.1564 2.61515 14.076 2.8C14.024 2.92 14.008 2.984 14.002 3.006V3.014C14.0251 3.1908 14.0872 3.36024 14.184 3.51C14.334 3.776 14.54 4.054 14.8 4.4L14.82 4.424C15.056 4.74 15.34 5.118 15.56 5.51C15.784 5.91 16 6.42 16 7C16 7.376 15.87 7.736 15.762 7.988C15.6464 8.25615 15.5114 8.51551 15.358 8.764C15.2011 9.02626 15.0323 9.2812 14.852 9.528L14.816 9.578L14.806 9.594L14.802 9.598C14.6431 9.81044 14.4064 9.95106 14.1438 9.98895C13.8813 10.0268 13.6144 9.95886 13.402 9.8C13.1896 9.64113 13.0489 9.40438 13.0111 9.14183C12.9732 8.87928 13.0411 8.61244 13.2 8.4L13.206 8.392L13.234 8.354C13.3795 8.15375 13.5157 7.94687 13.642 7.734C13.7493 7.56336 13.8436 7.38485 13.924 7.2C13.976 7.08 13.992 7.016 13.998 6.994C13.9767 6.81459 13.9152 6.64231 13.818 6.49C13.6323 6.17971 13.4259 5.88236 13.2 5.6L13.18 5.576C12.9098 5.23062 12.6626 4.86783 12.44 4.49C12.1676 4.03945 12.016 3.52625 12 3C12 2.624 12.13 2.264 12.238 2.012C12.356 1.736 12.506 1.464 12.642 1.236C12.8009 0.974982 12.9697 0.72013 13.148 0.471998L13.198 0.401998C13.3569 0.18956 13.5936 0.0489314 13.8562 0.011049C14.1187 -0.0268333 14.3856 0.0411339 14.598 0.199999C14.8104 0.358863 14.9511 0.595612 14.9889 0.858163C15.0268 1.12071 14.9589 1.38756 14.8 1.6ZM20.8 1.6L20.794 1.608L20.766 1.646C20.6205 1.84624 20.4843 2.05313 20.358 2.266C20.2507 2.43664 20.1564 2.61515 20.076 2.8C20.024 2.92 20.008 2.984 20.002 3.006V3.014C20.0251 3.1908 20.0872 3.36024 20.184 3.51C20.334 3.776 20.54 4.054 20.8 4.4L20.82 4.424C21.056 4.74 21.34 5.118 21.56 5.51C21.784 5.91 22 6.42 22 7C22 7.376 21.87 7.736 21.762 7.988C21.6464 8.25615 21.5114 8.51551 21.358 8.764C21.2017 9.02622 21.0336 9.28116 20.854 9.528L20.816 9.578L20.806 9.594L20.802 9.598C20.6431 9.81044 20.4064 9.95106 20.1438 9.98895C19.8813 10.0268 19.6144 9.95886 19.402 9.8C19.1896 9.64113 19.0489 9.40438 19.0111 9.14183C18.9732 8.87928 19.0411 8.61244 19.2 8.4L19.206 8.392L19.234 8.354C19.3795 8.15375 19.5157 7.94687 19.642 7.734C19.7493 7.56336 19.8436 7.38485 19.924 7.2C19.976 7.08 19.992 7.016 19.998 6.994C19.9767 6.81459 19.9152 6.64231 19.818 6.49C19.6324 6.17971 19.4259 5.88236 19.2 5.6L19.18 5.576C18.9098 5.23062 18.6626 4.86783 18.44 4.49C18.1676 4.03945 18.016 3.52625 18 3C18 2.624 18.13 2.264 18.238 2.012C18.356 1.736 18.506 1.464 18.642 1.236C18.8009 0.974982 18.9697 0.72013 19.148 0.471998L19.198 0.401998C19.3569 0.18956 19.5936 0.0489314 19.8562 0.011049C20.1187 -0.0268333 20.3856 0.0411339 20.598 0.199999C20.8104 0.358863 20.9511 0.595612 20.9889 0.858163C21.0268 1.12071 20.9589 1.38756 20.8 1.6Z" fill="#101828"/>
</g>
<defs>
<clipPath id="clip0_12138_439">
<rect width="32" height="32" fill="white"/>
</clipPath>
</defs>
</svg>
